<svg id="deal" width="52" height="64" viewBox="0 0 52 64" fill="none" xmlns="http://www.w3.org/2000/svg">
<path d="M2.45654 8.59726V55.7269C2.45654 57.2894 3.07722 58.7878 4.18204 59.8927C5.28685 60.9975 6.78531 61.6182 8.34775 61.6182H43.695C45.2575 61.6182 46.7559 60.9975 47.8607 59.8927C48.9655 58.7878 49.5862 57.2894 49.5862 55.7269V21.3871C49.5861 20.6023 49.4292 19.8254 49.1247 19.102C48.8202 18.3787 48.3742 17.7235 47.813 17.1749L34.7345 4.38505C33.6339 3.3089 32.1558 2.70625 30.6165 2.70605H8.34775C6.78531 2.70605 5.28685 3.32673 4.18204 4.43155C3.07722 5.53637 2.45654 7.03482 2.45654 8.59726V8.59726Z" stroke="#387FEA" stroke-width="4" stroke-linecap="round" stroke-linejoin="round"/>
<path d="M17.1846 35.1074H34.8582" stroke="#387FEA" stroke-width="4" stroke-linecap="round" stroke-linejoin="round"/>
<path d="M17.1846 46.8906H26.0214" stroke="#387FEA" stroke-width="4" stroke-linecap="round" stroke-linejoin="round"/>
<path d="M31.9126 2.70605V14.4885C31.9126 16.0509 32.5333 17.5494 33.6381 18.6542C34.7429 19.759 36.2414 20.3797 37.8038 20.3797H49.5862" stroke="#387FEA" stroke-width="4" stroke-linejoin="round"/>
</svg>
