<svg id="equipment" width="50" height="65" viewBox="0 0 50 65" fill="none" xmlns="http://www.w3.org/2000/svg">
<rect x="2.84082" y="34.8574" width="44.5397" height="28.1041" rx="8" stroke="#387FEA" stroke-width="4"/>
<path d="M16.495 49.9177C16.495 48.8131 15.5996 47.9177 14.495 47.9177C13.3904 47.9177 12.495 48.8131 12.495 49.9177L16.495 49.9177ZM26.9858 49.9177C26.9858 48.8131 26.0904 47.9177 24.9858 47.9177C23.8812 47.9177 22.9858 48.8131 22.9858 49.9177L26.9858 49.9177ZM37.342 49.9177C37.342 48.8131 36.4466 47.9177 35.342 47.9177C34.2375 47.9177 33.342 48.8131 33.342 49.9177L37.342 49.9177ZM24.0848 4.63477L26.1369 4.63477L26.1369 0.634765L24.0848 0.634765L24.0848 4.63477ZM21.0848 33.0939L21.0848 7.63477L17.0848 7.63477L17.0848 33.0939L21.0848 33.0939ZM29.1369 7.63477L29.1369 33.0939L33.1369 33.0939L33.1369 7.63477L29.1369 7.63477ZM12.495 49.9177L12.495 62.2987L16.495 62.2987L16.495 49.9177L12.495 49.9177ZM22.9858 49.9177L22.9858 62.2987L26.9858 62.2987L26.9858 49.9177L22.9858 49.9177ZM33.342 49.9177L33.342 62.2987L37.342 62.2987L37.342 49.9177L33.342 49.9177ZM24.0848 0.634765C20.2188 0.634765 17.0848 3.76878 17.0848 7.63477L21.0848 7.63477C21.0848 5.97791 22.428 4.63477 24.0848 4.63477L24.0848 0.634765ZM26.1369 4.63477C27.7938 4.63477 29.1369 5.97791 29.1369 7.63477L33.1369 7.63477C33.1369 3.76877 30.0029 0.634765 26.1369 0.634765L26.1369 4.63477Z" fill="#387FEA"/>
</svg>
