<svg id="guarantee" width="45" height="60" viewBox="0 0 45 60" fill="none" xmlns="http://www.w3.org/2000/svg">
<path d="M21.77 15.8376C21.8242 15.7264 21.9086 15.6327 22.0135 15.5671C22.1184 15.5016 22.2396 15.4668 22.3633 15.4668C22.487 15.4668 22.6082 15.5016 22.7131 15.5671C22.818 15.6327 22.9023 15.7264 22.9565 15.8376L25.3074 20.6023C25.3544 20.6987 25.4243 20.7822 25.5109 20.8455C25.5974 20.9088 25.6981 20.9501 25.8042 20.9657L31.0695 21.7295C31.6072 21.8074 31.826 22.4711 31.4329 22.853L27.6286 26.5647C27.5518 26.6396 27.4945 26.7321 27.4615 26.8342C27.4286 26.9363 27.421 27.0449 27.4395 27.1506L28.3368 32.3936C28.3569 32.5147 28.3429 32.639 28.2963 32.7525C28.2498 32.8661 28.1724 32.9644 28.0731 33.0364C27.9737 33.1084 27.8562 33.1513 27.7338 33.1603C27.6114 33.1692 27.4889 33.1438 27.3801 33.087L22.671 30.6101C22.5766 30.5607 22.4717 30.5349 22.3651 30.5349C22.2586 30.5349 22.1536 30.5607 22.0592 30.6101L17.3501 33.087C17.2414 33.1428 17.1194 33.1674 16.9976 33.1579C16.8758 33.1485 16.759 33.1055 16.6602 33.0336C16.5615 32.9617 16.4846 32.8638 16.4381 32.7508C16.3917 32.6378 16.3775 32.5142 16.3972 32.3936L17.2945 27.1506C17.3134 27.0452 17.3064 26.9368 17.2741 26.8347C17.2418 26.7327 17.1852 26.64 17.1091 26.5647L13.2899 22.853C13.2024 22.7671 13.1406 22.6586 13.1113 22.5395C13.0821 22.4205 13.0866 22.2956 13.1243 22.179C13.162 22.0623 13.2315 21.9585 13.3249 21.8791C13.4184 21.7997 13.5321 21.7479 13.6533 21.7295L18.9186 20.9657C19.0247 20.9501 19.1254 20.9088 19.212 20.8455C19.2985 20.7822 19.3684 20.6987 19.4154 20.6023L21.77 15.8376Z" fill="#387FEA"/>
<path d="M0.115723 8.05067C0.115723 6.08385 0.897039 4.19759 2.28779 2.80683C3.67854 1.41608 5.56481 0.634766 7.53163 0.634766L37.1953 0.634766C39.1621 0.634766 41.0483 1.41608 42.4391 2.80683C43.8298 4.19759 44.6112 6.08385 44.6112 8.05067V58.1081C44.611 58.4434 44.5199 58.7724 44.3475 59.0601C44.1751 59.3478 43.9279 59.5833 43.6323 59.7416C43.3366 59.8998 43.0036 59.975 42.6686 59.959C42.3336 59.9429 42.0093 59.8363 41.7301 59.6506L22.3634 49.2127L2.9968 59.6506C2.71761 59.8363 2.39326 59.9429 2.05829 59.959C1.72332 59.975 1.39027 59.8998 1.09462 59.7416C0.798972 59.5833 0.551793 59.3478 0.37941 59.0601C0.207027 58.7724 0.115896 58.4434 0.115723 58.1081V8.05067ZM7.53163 4.34272C6.54822 4.34272 5.60509 4.73338 4.90971 5.42875C4.21433 6.12413 3.82368 7.06726 3.82368 8.05067V54.6448L21.3363 45.4417C21.6406 45.2392 21.998 45.1312 22.3634 45.1312C22.7289 45.1312 23.0863 45.2392 23.3905 45.4417L40.9032 54.6448V8.05067C40.9032 7.06726 40.5126 6.12413 39.8172 5.42875C39.1218 4.73338 38.1787 4.34272 37.1953 4.34272H7.53163Z" fill="#387FEA"/>
</svg>
