<svg id="insta" width="25" height="25" viewBox="0 0 25 25" fill="none" xmlns="http://www.w3.org/2000/svg">
<path d="M24.9184 12.4599C24.9184 14.1448 24.8845 15.8345 24.9281 17.5194C25.0007 20.5019 23.127 22.8065 20.7401 23.8329C19.7814 24.2445 18.7744 24.4623 17.7334 24.4623C14.475 24.4672 11.2117 24.5108 7.95329 24.4478C5.49857 24.3994 3.47961 23.373 2.03195 21.3492C1.27182 20.284 0.908691 19.0736 0.908691 17.7615C0.908691 14.29 0.908691 10.8234 0.908691 7.35196C0.908691 4.5196 2.28856 2.53936 4.73844 1.25148C5.8036 0.694695 6.96075 0.457455 8.16632 0.452613C11.3279 0.452613 14.4944 0.433246 17.656 0.462296C20.1107 0.481663 22.1587 1.42094 23.6693 3.39633C24.5117 4.50023 24.9184 5.76874 24.9184 7.16314C24.9184 8.9255 24.9184 10.6927 24.9184 12.4599ZM2.69526 12.4599C2.69526 14.2368 2.69526 16.0088 2.69526 17.7857C2.69526 18.5797 2.87924 19.3254 3.29078 19.9983C4.37047 21.7655 6.00211 22.6274 8.02592 22.6613C11.2747 22.7097 14.5282 22.6806 17.7818 22.6709C18.5807 22.6709 19.3554 22.5063 20.0768 22.1626C22.0425 21.2233 23.1415 19.7272 23.1319 17.4807C23.1125 14.0431 23.127 10.6055 23.127 7.16798C23.127 6.19481 22.851 5.30394 22.2749 4.5196C21.1613 3.01384 19.6217 2.27307 17.7818 2.25371C14.5379 2.21497 11.294 2.23918 8.05012 2.24402C7.35777 2.24402 6.68962 2.38443 6.04084 2.62651C4.25911 3.28982 2.60327 4.96987 2.68073 7.44395C2.73883 9.11916 2.69526 10.7895 2.69526 12.4599Z" fill="black"/>
<path d="M12.9403 17.5923C9.81743 17.5923 7.29977 15.1037 7.29493 12.0051C7.29009 8.95484 9.82711 6.45655 12.9306 6.45655C16.0438 6.45171 18.5711 8.94516 18.576 12.0196C18.576 15.0892 16.0535 17.5875 12.9403 17.5923ZM12.9403 15.8009C15.0658 15.8009 16.7894 14.1015 16.7846 12.0099C16.7797 9.93769 15.0561 8.24312 12.9403 8.24312C10.8148 8.24312 9.0815 9.93285 9.0815 12.0196C9.08634 14.1112 10.8148 15.8058 12.9403 15.8009Z" fill="black"/>
<path d="M19.2297 4.76074C19.8834 4.76074 20.4159 5.31753 20.4159 6.0002C20.4111 6.68288 19.8737 7.23482 19.2201 7.22998C18.5761 7.22514 18.0484 6.67319 18.0484 6.00505C18.0435 5.32237 18.5761 4.76074 19.2297 4.76074Z" fill="black"/>
</svg>
