<svg id="logo" width="161" height="49" viewBox="0 0 161 49" fill="none" xmlns="http://www.w3.org/2000/svg">
<path d="M2.7021 40.1156L6.86722 43.9971H5.85207L1.89595 40.3246V43.9971H1.14951V36.5327H1.89595V39.9215L5.67292 36.5327H6.71793L2.7021 40.1156ZM9.17219 36.5327H14.4271V43.9971H13.6807V37.2642H9.91863V40.862C9.91863 42.0364 9.70465 42.8675 9.2767 43.3551C8.84874 43.8428 8.22671 44.0568 7.4106 43.9971V43.2954C8.01771 43.3452 8.46059 43.181 8.73926 42.8028C9.02788 42.4246 9.17219 41.7777 9.17219 40.862V36.5327ZM17.4662 42.6983L22.2284 36.5327H22.8853V43.9971H22.1239V37.8315L17.3766 43.9971H16.7197V36.5327H17.4662V42.6983ZM30.5942 39.9066V36.5327H31.3556V43.9971H30.5942V40.6232H25.9365V43.9971H25.19V36.5327H25.9365V39.9066H30.5942ZM34.4068 42.6983L39.169 36.5327H39.8259V43.9971H39.0645V37.8315L34.3172 43.9971H33.6603V36.5327H34.4068V42.6983ZM47.5349 39.9066V36.5327H48.2962V43.9971H47.5349V40.6232H42.8771V43.9971H42.1307V36.5327H42.8771V39.9066H47.5349ZM50.601 36.5327H55.2737V37.2642H51.3474V43.9971H50.601V36.5327ZM59.7346 44.1613C58.6398 44.1613 57.7092 43.7881 56.9429 43.0416C56.1865 42.2852 55.8083 41.3597 55.8083 40.2649C55.8083 39.1701 56.1865 38.2495 56.9429 37.5031C57.6993 36.7467 58.6298 36.3685 59.7346 36.3685C60.8194 36.3685 61.74 36.7467 62.4964 37.5031C63.2627 38.2495 63.6459 39.1701 63.6459 40.2649C63.6459 41.3497 63.2627 42.2753 62.4964 43.0416C61.73 43.7881 60.8094 44.1613 59.7346 44.1613ZM57.4803 42.5191C58.0974 43.1362 58.8488 43.4447 59.7346 43.4447C60.6104 43.4447 61.3568 43.1362 61.9739 42.5191C62.581 41.912 62.8845 41.1606 62.8845 40.2649C62.8845 39.3692 62.581 38.6177 61.9739 38.0106C61.3568 37.3936 60.6104 37.0851 59.7346 37.0851C58.8488 37.0851 58.0974 37.3936 57.4803 38.0106C56.8732 38.6177 56.5697 39.3692 56.5697 40.2649C56.5697 41.1606 56.8732 41.912 57.4803 42.5191ZM70.0403 40.1455C70.9161 40.4241 71.354 41.0213 71.354 41.9369C71.354 42.554 71.15 43.0516 70.7419 43.4298C70.3438 43.808 69.7815 43.9971 69.055 43.9971H65.4422V36.5327H68.7713C69.468 36.5327 70.0104 36.7168 70.3986 37.0851C70.7967 37.4434 70.9957 37.9111 70.9957 38.4884C70.9957 39.2846 70.6772 39.8369 70.0403 40.1455ZM68.7713 37.2642H66.1887V39.8469H68.7713C69.2491 39.8469 69.6123 39.7324 69.8611 39.5035C70.1099 39.2746 70.2344 38.9512 70.2344 38.5332C70.2344 38.1351 70.105 37.8265 69.8462 37.6076C69.5974 37.3787 69.2391 37.2642 68.7713 37.2642ZM66.1887 43.2656H69.055C69.5526 43.2656 69.9358 43.1461 70.2045 42.9073C70.4732 42.6684 70.6076 42.335 70.6076 41.907C70.6076 41.489 70.4682 41.1656 70.1896 40.9367C69.9209 40.6978 69.5427 40.5784 69.055 40.5784H66.1887V43.2656ZM79.5773 38.2196V36.5327H80.3387V43.9971H79.5773V42.3101C79.2489 42.8874 78.806 43.3402 78.2486 43.6686C77.6913 43.9971 77.0643 44.1613 76.3676 44.1613C75.3127 44.1613 74.402 43.7881 73.6357 43.0416C72.8793 42.2852 72.5011 41.3597 72.5011 40.2649C72.5011 39.1701 72.8793 38.2495 73.6357 37.5031C74.392 36.7467 75.3027 36.3685 76.3676 36.3685C77.0643 36.3685 77.6913 36.5327 78.2486 36.8611C78.806 37.1896 79.2489 37.6424 79.5773 38.2196ZM74.1731 42.5191C74.7901 43.1362 75.5416 43.4447 76.4273 43.4447C77.3032 43.4447 78.0496 43.1362 78.6666 42.5191C79.2737 41.912 79.5773 41.1606 79.5773 40.2649C79.5773 39.3692 79.2737 38.6177 78.6666 38.0106C78.0496 37.3936 77.3032 37.0851 76.4273 37.0851C75.5416 37.0851 74.7901 37.3936 74.1731 38.0106C73.566 38.6177 73.2624 39.3692 73.2624 40.2649C73.2624 41.1606 73.566 41.912 74.1731 42.5191ZM84.8401 36.5327H87.796V43.9971H87.0496V41.086H85.4373L83.0935 43.9971H82.1231L84.5117 41.071C83.8947 41.0014 83.3821 40.7575 82.9741 40.3395C82.576 39.9215 82.3769 39.4139 82.3769 38.8168C82.3769 38.15 82.6158 37.6026 83.0935 37.1746C83.5612 36.7467 84.1435 36.5327 84.8401 36.5327ZM84.8401 40.3694H87.0496V37.2642H84.8401C84.3525 37.2642 83.9444 37.4135 83.616 37.7121C83.2975 38.0007 83.1383 38.3689 83.1383 38.8168C83.1383 39.2846 83.2975 39.6628 83.616 39.9514C83.9444 40.2301 84.3525 40.3694 84.8401 40.3694ZM95.6277 40.1156L99.7928 43.9971H98.7776L94.8215 40.3246V43.9971H94.0751V36.5327H94.8215V39.9215L98.5985 36.5327H99.6435L95.6277 40.1156ZM103.967 44.1613C102.872 44.1613 101.941 43.7881 101.175 43.0416C100.419 42.2852 100.041 41.3597 100.041 40.2649C100.041 39.1701 100.419 38.2495 101.175 37.5031C101.931 36.7467 102.862 36.3685 103.967 36.3685C105.052 36.3685 105.972 36.7467 106.729 37.5031C107.495 38.2495 107.878 39.1701 107.878 40.2649C107.878 41.3497 107.495 42.2753 106.729 43.0416C105.962 43.7881 105.042 44.1613 103.967 44.1613ZM101.713 42.5191C102.33 43.1362 103.081 43.4447 103.967 43.4447C104.843 43.4447 105.589 43.1362 106.206 42.5191C106.813 41.912 107.117 41.1606 107.117 40.2649C107.117 39.3692 106.813 38.6177 106.206 38.0106C105.589 37.3936 104.843 37.0851 103.967 37.0851C103.081 37.0851 102.33 37.3936 101.713 38.0106C101.105 38.6177 100.802 39.3692 100.802 40.2649C100.802 41.1606 101.105 41.912 101.713 42.5191ZM115.989 36.5327H116.885V43.9971H116.124V37.6673L113.332 42.0713H113.227L110.421 37.6374V43.9971H109.674V36.5327H110.555L113.272 40.8172L115.989 36.5327ZM119.18 36.5327H125.345V43.9971H124.584V37.2642H119.926V43.9971H119.18V36.5327ZM134.219 38.2196V36.5327H134.98V43.9971H134.219V42.3101C133.89 42.8874 133.447 43.3402 132.89 43.6686C132.333 43.9971 131.706 44.1613 131.009 44.1613C129.954 44.1613 129.044 43.7881 128.277 43.0416C127.521 42.2852 127.143 41.3597 127.143 40.2649C127.143 39.1701 127.521 38.2495 128.277 37.5031C129.034 36.7467 129.944 36.3685 131.009 36.3685C131.706 36.3685 132.333 36.5327 132.89 36.8611C133.447 37.1896 133.89 37.6424 134.219 38.2196ZM128.815 42.5191C129.432 43.1362 130.183 43.4447 131.069 43.4447C131.945 43.4447 132.691 43.1362 133.308 42.5191C133.915 41.912 134.219 41.1606 134.219 40.2649C134.219 39.3692 133.915 38.6177 133.308 38.0106C132.691 37.3936 131.945 37.0851 131.069 37.0851C130.183 37.0851 129.432 37.3936 128.815 38.0106C128.208 38.6177 127.904 39.3692 127.904 40.2649C127.904 41.1606 128.208 41.912 128.815 42.5191ZM142.676 39.9066V36.5327H143.438V43.9971H142.676V40.6232H138.019V43.9971H137.272V36.5327H138.019V39.9066H142.676ZM146.489 42.6983L151.251 36.5327H151.908V43.9971H151.147V37.8315L146.399 43.9971H145.743V36.5327H146.489V42.6983ZM156.422 36.5327H159.378V43.9971H158.632V41.086H157.019L154.676 43.9971H153.705L156.094 41.071C155.477 41.0014 154.964 40.7575 154.556 40.3395C154.158 39.9215 153.959 39.4139 153.959 38.8168C153.959 38.15 154.198 37.6026 154.676 37.1746C155.143 36.7467 155.726 36.5327 156.422 36.5327ZM156.422 40.3694H158.632V37.2642H156.422C155.935 37.2642 155.527 37.4135 155.198 37.7121C154.88 38.0007 154.72 38.3689 154.72 38.8168C154.72 39.2846 154.88 39.6628 155.198 39.9514C155.527 40.2301 155.935 40.3694 156.422 40.3694Z" fill="#333333"/>
<path d="M14.5643 6.00763V10.6322H6.6065V14.6862H14.4142V19.3107H6.6065V27.0283H1.80177V6.00763H14.5643ZM21.7574 12.0135V14.6862C22.0376 13.7452 22.5882 13.0145 23.409 12.494C24.2498 11.9735 25.2007 11.7132 26.2618 11.7132V16.8183C25.1407 16.6381 24.1097 16.8283 23.1687 17.3888C22.2278 17.9294 21.7574 18.8803 21.7574 20.2416V27.0283H17.2529V12.0135H21.7574ZM42.6119 21.3227H31.9514C32.4519 22.7241 33.6531 23.4248 35.555 23.4248C36.7762 23.4248 37.7371 23.0444 38.4378 22.2837L42.0414 24.3557C40.5799 26.4177 38.3978 27.4487 35.4949 27.4487C32.9925 27.4487 30.9705 26.698 29.429 25.1965C27.9275 23.695 27.1767 21.8032 27.1767 19.5209C27.1767 17.2787 27.9175 15.3969 29.3989 13.8754C30.9004 12.3539 32.8223 11.5931 35.1646 11.5931C37.3468 11.5931 39.1585 12.3539 40.6 13.8754C42.0614 15.3568 42.7921 17.2387 42.7921 19.5209C42.7921 20.1616 42.7321 20.7622 42.6119 21.3227ZM31.8614 17.9594H38.3177C37.8773 16.3778 36.8162 15.5871 35.1346 15.5871C33.3929 15.5871 32.3018 16.3778 31.8614 17.9594ZM49.0247 16.3979C49.0247 16.6581 49.2349 16.8883 49.6553 17.0885C50.0757 17.2687 50.7363 17.4789 51.6372 17.7192C54.8404 18.4198 56.4319 20.0214 56.4119 22.5239C56.4119 24.1455 55.8113 25.3767 54.6102 26.2175C53.389 27.0383 51.9075 27.4487 50.1658 27.4487C47.0027 27.4487 44.8505 26.2576 43.7094 23.8752L47.6133 21.653C48.0137 22.8342 48.8645 23.4248 50.1658 23.4248C51.2468 23.4248 51.7874 23.1145 51.7874 22.4939C51.7874 22.0534 50.9165 21.613 49.1748 21.1726C48.5342 20.9924 47.9836 20.8122 47.5232 20.632C47.0627 20.4318 46.5622 20.1616 46.0217 19.8212C45.5012 19.4609 45.1008 19.0004 44.8205 18.4399C44.5402 17.8793 44.4001 17.2387 44.4001 16.518C44.4001 14.9765 44.9607 13.7653 46.0818 12.8844C47.2029 12.0236 48.6042 11.5931 50.2859 11.5931C52.9085 11.5931 54.8604 12.6642 56.1417 14.8063L52.2979 16.8783C51.8174 15.9975 51.1467 15.557 50.2859 15.557C49.4451 15.557 49.0247 15.8373 49.0247 16.3979ZM67.4595 11.5931C69.0811 11.5931 70.4124 12.1437 71.4535 13.2448C72.5345 14.3659 73.075 15.8874 73.075 17.8092V27.0283H68.5706V18.4699C68.5706 17.609 68.3304 16.9384 67.8499 16.4579C67.3694 15.9774 66.7388 15.7372 65.958 15.7372C65.0772 15.7372 64.3865 16.0075 63.886 16.548C63.4055 17.0685 63.1653 17.8293 63.1653 18.8303V27.0283H58.6609V6.00763H63.1653V13.4249C64.0662 12.2037 65.4976 11.5931 67.4595 11.5931Z" fill="#387FEA"/>
<path d="M87.7297 14.0556V6.00763H92.5344V27.0283H87.7297V18.6801H81.1232V27.0283H76.3185V6.00763H81.1232V14.0556H87.7297ZM108.845 25.1665C107.324 26.688 105.442 27.4487 103.2 27.4487C100.957 27.4487 99.0756 26.688 97.5541 25.1665C96.0125 23.625 95.2418 21.7431 95.2418 19.5209C95.2418 17.3188 96.0125 15.4469 97.5541 13.9054C99.0956 12.3639 100.977 11.5931 103.2 11.5931C105.422 11.5931 107.304 12.3639 108.845 13.9054C110.387 15.4469 111.157 17.3188 111.157 19.5209C111.157 21.7431 110.387 23.625 108.845 25.1665ZM99.7462 19.5209C99.7462 20.562 100.077 21.4128 100.737 22.0734C101.398 22.7341 102.219 23.0644 103.2 23.0644C104.181 23.0644 105.001 22.7341 105.662 22.0734C106.323 21.4128 106.653 20.562 106.653 19.5209C106.653 18.4799 106.323 17.6291 105.662 16.9684C105.001 16.3078 104.181 15.9774 103.2 15.9774C102.219 15.9774 101.398 16.3078 100.737 16.9684C100.077 17.6291 99.7462 18.4799 99.7462 19.5209ZM123.405 20.2116V12.0135H127.909V27.0283H123.405V25.6169C122.504 26.8381 121.073 27.4487 119.111 27.4487C117.509 27.4487 116.168 26.8982 115.087 25.7971C114.026 24.676 113.495 23.1545 113.495 21.2326V12.0135H118V20.572C118 21.4328 118.24 22.1035 118.72 22.5839C119.201 23.0644 119.831 23.3047 120.612 23.3047C121.493 23.3047 122.174 23.0444 122.654 22.5239C123.155 21.9834 123.405 21.2126 123.405 20.2116ZM135.33 16.3979C135.33 16.6581 135.541 16.8883 135.961 17.0885C136.381 17.2687 137.042 17.4789 137.943 17.7192C141.146 18.4198 142.738 20.0214 142.718 22.5239C142.718 24.1455 142.117 25.3767 140.916 26.2175C139.695 27.0383 138.213 27.4487 136.471 27.4487C133.308 27.4487 131.156 26.2576 130.015 23.8752L133.919 21.653C134.319 22.8342 135.17 23.4248 136.471 23.4248C137.552 23.4248 138.093 23.1145 138.093 22.4939C138.093 22.0534 137.222 21.613 135.48 21.1726C134.84 20.9924 134.289 20.8122 133.829 20.632C133.368 20.4318 132.868 20.1616 132.327 19.8212C131.807 19.4609 131.406 19.0004 131.126 18.4399C130.846 17.8793 130.706 17.2387 130.706 16.518C130.706 14.9765 131.266 13.7653 132.387 12.8844C133.509 12.0236 134.91 11.5931 136.592 11.5931C139.214 11.5931 141.166 12.6642 142.447 14.8063L138.604 16.8783C138.123 15.9975 137.452 15.557 136.592 15.557C135.751 15.557 135.33 15.8373 135.33 16.3979ZM159.504 21.3227H148.844C149.344 22.7241 150.546 23.4248 152.447 23.4248C153.669 23.4248 154.63 23.0444 155.33 22.2837L158.934 24.3557C157.472 26.4177 155.29 27.4487 152.387 27.4487C149.885 27.4487 147.863 26.698 146.321 25.1965C144.82 23.695 144.069 21.8032 144.069 19.5209C144.069 17.2787 144.81 15.3969 146.291 13.8754C147.793 12.3539 149.715 11.5931 152.057 11.5931C154.239 11.5931 156.051 12.3539 157.492 13.8754C158.954 15.3568 159.685 17.2387 159.685 19.5209C159.685 20.1616 159.624 20.7622 159.504 21.3227ZM148.754 17.9594H155.21C154.77 16.3778 153.709 15.5871 152.027 15.5871C150.285 15.5871 149.194 16.3778 148.754 17.9594Z" fill="#333333"/>
</svg>
