<svg id="personnel" width="70" height="64" viewBox="0 0 70 64" fill="none" xmlns="http://www.w3.org/2000/svg">
<path d="M2.5332 54.4563V51.2219C2.5332 45.2172 4.91857 39.4584 9.16455 35.2124C13.4105 30.9664 19.1693 28.5811 25.174 28.5811V28.5811" stroke="#387FEA" stroke-width="4" stroke-linecap="round" stroke-linejoin="round"/>
<path d="M47.1811 29.5934C47.6715 29.0551 48.2689 28.6252 48.935 28.3309C49.6011 28.0367 50.3213 27.8848 51.0494 27.8848C51.7776 27.8848 52.4978 28.0367 53.1639 28.3309C53.83 28.6252 54.4274 29.0551 54.9178 29.5934V29.5934C55.969 30.7481 57.473 31.3723 59.0319 31.2979C59.7597 31.2638 60.4865 31.382 61.1659 31.645C61.8453 31.9079 62.4624 32.3098 62.9775 32.825C63.4927 33.3401 63.8946 33.9572 64.1575 34.6366C64.4205 35.316 64.5387 36.0428 64.5046 36.7705V36.7705C64.4302 38.3263 65.0544 39.8335 66.2059 40.8847C68.4861 42.9612 68.4861 46.5449 66.2059 48.6214C65.0544 49.6726 64.4302 51.1766 64.5046 52.7356C64.5387 53.4633 64.4205 54.1901 64.1575 54.8695C63.8946 55.5489 63.4927 56.166 62.9775 56.6811C62.4624 57.1963 61.8453 57.5982 61.1659 57.8611C60.4865 58.1241 59.7597 58.2423 59.0319 58.2082V58.2082C58.2633 58.1718 57.4961 58.3054 56.7849 58.5995C56.0738 58.8936 55.4363 59.3408 54.9178 59.9095C54.4274 60.4477 53.83 60.8777 53.1639 61.1719C52.4978 61.4661 51.7776 61.6181 51.0494 61.6181C50.3213 61.6181 49.6011 61.4661 48.935 61.1719C48.2689 60.8777 47.6715 60.4477 47.1811 59.9095V59.9095C46.6626 59.3408 46.0251 58.8936 45.314 58.5995C44.6028 58.3054 43.8356 58.1718 43.0669 58.2082V58.2082C42.3392 58.2423 41.6124 58.1241 40.933 57.8611C40.2535 57.5982 39.6365 57.1963 39.1214 56.6811C38.6062 56.166 38.2043 55.5489 37.9414 54.8695C37.6784 54.1901 37.5602 53.4633 37.5943 52.7356V52.7356C37.6303 51.9666 37.4961 51.1993 37.2015 50.4881C36.9069 49.777 36.459 49.1396 35.8898 48.6214V48.6214C35.3515 48.131 34.9215 47.5336 34.6273 46.8675C34.3331 46.2014 34.1812 45.4812 34.1812 44.7531C34.1812 44.0249 34.3331 43.3047 34.6273 42.6386C34.9215 41.9725 35.3515 41.3751 35.8898 40.8847V40.8847C37.0445 39.8335 37.6687 38.3295 37.5943 36.7705C37.5602 36.0428 37.6784 35.316 37.9414 34.6366C38.2043 33.9572 38.6062 33.3401 39.1214 32.825C39.6365 32.3098 40.2535 31.9079 40.933 31.645C41.6124 31.382 42.3392 31.2638 43.0669 31.2979V31.2979C44.6227 31.3723 46.1299 30.7481 47.1811 29.5934V29.5934Z" stroke="#387FEA" stroke-width="4"/>
<path d="M45.7578 44.753L49.2833 48.2785L56.3408 41.2275" stroke="#387FEA" stroke-width="4" stroke-linecap="round" stroke-linejoin="round"/>
<path d="M25.1739 28.5813C28.6052 28.5813 31.8959 27.2182 34.3222 24.7919C36.7485 22.3657 38.1115 19.0749 38.1115 15.6437C38.1115 12.2124 36.7485 8.92167 34.3222 6.49539C31.8959 4.06912 28.6052 2.70605 25.1739 2.70605C21.7427 2.70605 18.4519 4.06912 16.0257 6.49539C13.5994 8.92167 12.2363 12.2124 12.2363 15.6437C12.2363 19.0749 13.5994 22.3657 16.0257 24.7919C18.4519 27.2182 21.7427 28.5813 25.1739 28.5813V28.5813Z" stroke="#387FEA" stroke-width="4" stroke-linecap="round" stroke-linejoin="round"/>
</svg>
