<svg id="phone" width="21" height="21" viewBox="0 0 21 21" fill="none" xmlns="http://www.w3.org/2000/svg">
<path d="M11.9229 6.38798C12.7185 6.38798 13.4816 6.71135 14.0442 7.28695C14.6068 7.86255 14.9229 8.64323 14.9229 9.45725C14.9229 9.72859 15.0282 9.98882 15.2157 10.1807C15.4033 10.3725 15.6576 10.4803 15.9229 10.4803C16.1881 10.4803 16.4424 10.3725 16.63 10.1807C16.8175 9.98882 16.9229 9.72859 16.9229 9.45725C16.9229 8.10055 16.3961 6.79941 15.4584 5.84008C14.5207 4.88074 13.2489 4.3418 11.9229 4.3418C11.6576 4.3418 11.4033 4.44959 11.2157 4.64145C11.0282 4.83332 10.9229 5.09355 10.9229 5.36489C10.9229 5.63623 11.0282 5.89645 11.2157 6.08832C11.4033 6.28019 11.6576 6.38798 11.9229 6.38798V6.38798Z" fill="#387FEA"/>
<path d="M11.9228 2.29521C13.7794 2.29521 15.5598 3.04974 16.8726 4.3928C18.1854 5.73587 18.9228 7.55747 18.9228 9.45685C18.9228 9.72819 19.0282 9.98842 19.2157 10.1803C19.4033 10.3722 19.6576 10.4799 19.9228 10.4799C20.1881 10.4799 20.4424 10.3722 20.63 10.1803C20.8175 9.98842 20.9228 9.72819 20.9228 9.45685C20.9228 7.01478 19.9746 4.67274 18.2868 2.94593C16.599 1.21913 14.3098 0.249023 11.9228 0.249023C11.6576 0.249023 11.4033 0.356813 11.2157 0.54868C11.0282 0.740547 10.9228 1.00077 10.9228 1.27212C10.9228 1.54346 11.0282 1.80368 11.2157 1.99555C11.4033 2.18742 11.6576 2.29521 11.9228 2.29521V2.29521ZM20.6728 14.4802C20.6178 14.316 20.5229 14.1688 20.3969 14.0524C20.271 13.9361 20.1182 13.8545 19.9528 13.8152L13.9528 12.4136C13.79 12.3758 13.6205 12.3804 13.4598 12.4268C13.2991 12.4733 13.1523 12.5602 13.0328 12.6796C12.8928 12.8126 12.8828 12.8228 12.2328 14.0915C10.076 13.0747 8.34784 11.2993 7.36285 9.08854C8.63285 8.43376 8.64285 8.43376 8.77285 8.2803C8.88956 8.1581 8.9745 8.00794 9.01991 7.84352C9.06533 7.67911 9.06978 7.50568 9.03285 7.33905L7.66285 1.27212C7.6245 1.10299 7.54471 0.94664 7.43099 0.817772C7.31728 0.688904 7.17338 0.591762 7.01285 0.535489C6.77932 0.450153 6.53816 0.388471 6.29285 0.351333C6.0401 0.291375 5.78218 0.257105 5.52285 0.249023C4.30286 0.249023 3.13283 0.744856 2.27016 1.62744C1.40749 2.51003 0.922852 3.70708 0.922852 4.95525C0.928143 9.13224 2.55234 13.1366 5.43925 16.0902C8.32616 19.0438 12.2401 20.7055 16.3228 20.7109C16.9269 20.7109 17.5251 20.5891 18.0832 20.3526C18.6413 20.1161 19.1484 19.7695 19.5755 19.3324C20.0027 18.8954 20.3415 18.3766 20.5727 17.8056C20.8039 17.2347 20.9228 16.6227 20.9228 16.0046C20.9232 15.7442 20.9031 15.4842 20.8628 15.2271C20.8208 14.973 20.7572 14.7231 20.6728 14.4802V14.4802ZM16.3228 18.6647C12.7698 18.662 9.36296 17.2167 6.85054 14.6463C4.33813 12.0759 2.9255 8.59038 2.92285 4.95525C2.92549 4.25059 3.20026 3.57556 3.68728 3.07729C4.17431 2.57902 4.8341 2.2979 5.52285 2.29521H5.85285L6.92285 7.04236L6.38285 7.32882C5.52285 7.78921 4.84285 8.15753 5.20285 8.95554C5.78907 10.6534 6.73762 12.1964 7.97959 13.4724C9.22155 14.7483 10.7257 15.7252 12.3828 16.332C13.2228 16.6799 13.5528 16.0353 14.0028 15.1452L14.2928 14.5825L18.9228 15.667V16.0046C18.9202 16.7093 18.6454 17.3843 18.1584 17.8826C17.6714 18.3809 17.0116 18.662 16.3228 18.6647V18.6647Z" fill="#387FEA"/>
</svg>
