<svg id="scroll" width="43" height="35" viewBox="0 0 43 35" fill="none" xmlns="http://www.w3.org/2000/svg">
<path d="M35.2308 17.2646L36.2707 18.3046C36.5463 18.0286 36.7011 17.6546 36.7011 17.2646C36.7011 16.8746 36.5463 16.5006 36.2707 16.2247L35.2308 17.2646ZM19.5335 17.2646L18.4935 16.2247C18.2179 16.5006 18.0631 16.8746 18.0631 17.2646C18.0631 17.6546 18.2179 18.0286 18.4935 18.3046L19.5335 17.2646ZM32.3464 12.3003C32.0674 12.0404 31.6984 11.8989 31.3172 11.9056C30.9359 11.9123 30.5722 12.0668 30.3026 12.3364C30.0329 12.606 29.8785 12.9698 29.8718 13.351C29.865 13.7323 30.0065 14.1013 30.2665 14.3802L32.3464 12.3003ZM30.2665 20.149C30.1219 20.2837 30.0059 20.4462 29.9255 20.6267C29.8451 20.8072 29.8018 21.0021 29.7983 21.1997C29.7949 21.3973 29.8312 21.5935 29.9052 21.7768C29.9792 21.96 30.0894 22.1265 30.2291 22.2662C30.3689 22.406 30.5353 22.5161 30.7186 22.5902C30.9018 22.6642 31.0981 22.7005 31.2957 22.697C31.4933 22.6935 31.6882 22.6503 31.8687 22.5699C32.0492 22.4894 32.2117 22.3735 32.3464 22.2289L30.2665 20.149ZM24.4977 14.3802C24.6423 14.2455 24.7583 14.083 24.8387 13.9025C24.9192 13.722 24.9624 13.5271 24.9659 13.3295C24.9694 13.1319 24.933 12.9357 24.859 12.7524C24.785 12.5692 24.6748 12.4027 24.5351 12.263C24.3954 12.1232 24.2289 12.0131 24.0457 11.9391C23.8624 11.865 23.6661 11.8287 23.4685 11.8322C23.271 11.8357 23.0761 11.8789 22.8956 11.9594C22.715 12.0398 22.5526 12.1558 22.4179 12.3003L24.4977 14.3802ZM22.4179 22.2289C22.5526 22.3735 22.715 22.4894 22.8956 22.5699C23.0761 22.6503 23.2709 22.6935 23.4685 22.697C23.6661 22.7005 23.8624 22.6642 24.0457 22.5902C24.2289 22.5161 24.3954 22.406 24.5351 22.2662C24.6748 22.1265 24.785 21.96 24.859 21.7768C24.933 21.5935 24.9694 21.3973 24.9659 21.1997C24.9624 21.0021 24.9192 20.8072 24.8387 20.6267C24.7583 20.4462 24.6423 20.2837 24.4977 20.149L22.4179 22.2289ZM25.42 0.0957025L17.5713 0.0957022L17.5713 3.03894L25.42 3.03894L25.42 0.0957025ZM17.5713 34.4335L25.42 34.4335L25.42 31.4903L17.5713 31.4903L17.5713 34.4335ZM35.2308 15.793L19.5335 15.793L19.5335 18.7362L35.2308 18.7362L35.2308 15.793ZM36.2707 16.2247L32.3464 12.3003L30.2665 14.3802L34.1908 18.3046L36.2707 16.2247ZM34.1908 16.2247L30.2665 20.149L32.3464 22.2289L36.2707 18.3046L34.1908 16.2247ZM20.5734 18.3046L24.4977 14.3802L22.4179 12.3003L18.4935 16.2247L20.5734 18.3046ZM18.4935 18.3046L22.4179 22.2289L24.4977 20.149L20.5734 16.2247L18.4935 18.3046ZM25.42 34.4335C29.9734 34.4335 34.3404 32.6247 37.5602 29.4049C40.78 26.1851 42.5889 21.8181 42.5889 17.2646L39.6456 17.2646C39.6456 21.0375 38.1469 24.6558 35.479 27.3237C32.8112 29.9915 29.1928 31.4903 25.42 31.4903L25.42 34.4335ZM0.402404 17.2646C0.402404 19.5193 0.846489 21.7518 1.70931 23.8349C2.57213 25.9179 3.83678 27.8106 5.43106 29.4049C7.02534 30.9991 8.91803 32.2638 11.0011 33.1266C13.0841 33.9894 15.3167 34.4335 17.5713 34.4335L17.5713 31.4903C13.7984 31.4903 10.1801 29.9915 7.51225 27.3237C4.84442 24.6558 3.34564 21.0375 3.34565 17.2646L0.402404 17.2646ZM17.5713 0.0957022C13.0178 0.095702 8.65086 1.90456 5.43106 5.12436C2.21127 8.34415 0.402404 12.7111 0.402404 17.2646L3.34565 17.2646C3.34565 13.4917 4.84442 9.87337 7.51225 7.20554C10.1801 4.53771 13.7984 3.03894 17.5713 3.03894L17.5713 0.0957022ZM25.42 3.03894C29.1928 3.03894 32.8112 4.53772 35.479 7.20555C38.1469 9.87338 39.6456 13.4917 39.6456 17.2646L42.5889 17.2646C42.5889 12.7111 40.78 8.34415 37.5602 5.12436C34.3404 1.90456 29.9734 0.0957026 25.42 0.0957025L25.42 3.03894Z" fill="#387FEA"/>
</svg>
