<svg id="vk" width="29" height="16" viewBox="0 0 29 16" fill="none" xmlns="http://www.w3.org/2000/svg">
<path d="M28.7596 14.1359C28.7254 14.0648 28.6935 14.0059 28.6638 13.9586C28.1735 13.1073 27.2365 12.0625 25.8534 10.8237L25.8242 10.7953L25.8096 10.7814L25.7948 10.7671H25.78C25.1522 10.1903 24.7547 9.80243 24.5883 9.60385C24.2837 9.22558 24.2155 8.84269 24.3819 8.45473C24.4995 8.16162 24.9413 7.54259 25.7062 6.59682C26.1086 6.09559 26.4272 5.69387 26.6625 5.39121C28.3597 3.21619 29.0955 1.82632 28.8697 1.22105L28.7821 1.07961C28.7232 0.994459 28.5711 0.916559 28.3262 0.845516C28.0806 0.774621 27.7668 0.762897 27.3842 0.810144L23.1466 0.838362C23.078 0.814913 22.98 0.817098 22.8523 0.845516C22.7247 0.873933 22.6609 0.888192 22.6609 0.888192L22.5872 0.923714L22.5286 0.966389C22.4796 0.994608 22.4256 1.04424 22.3667 1.11518C22.3081 1.18588 22.2591 1.26885 22.2199 1.36339C21.7586 2.50759 21.234 3.5714 20.6453 4.55479C20.2823 5.14117 19.949 5.64936 19.6446 6.07964C19.3406 6.50978 19.0855 6.82669 18.8797 7.02984C18.6735 7.23318 18.4875 7.39608 18.3204 7.51914C18.1536 7.64225 18.0262 7.69427 17.938 7.67524C17.8497 7.65621 17.7664 7.63733 17.6876 7.61846C17.5504 7.5333 17.44 7.4175 17.3568 7.27094C17.2732 7.12438 17.2169 6.93991 17.1875 6.71769C17.1582 6.49532 17.1409 6.30405 17.1359 6.14323C17.1313 5.98262 17.1335 5.75542 17.1434 5.46231C17.1536 5.16904 17.1582 4.97062 17.1582 4.86658C17.1582 4.50719 17.1655 4.11715 17.18 3.69635C17.1949 3.27556 17.2069 2.94215 17.2169 2.69652C17.2269 2.45065 17.2316 2.19053 17.2316 1.91629C17.2316 1.64205 17.2143 1.42698 17.18 1.27088C17.1462 1.11498 17.0943 0.963657 17.026 0.816949C16.9572 0.670391 16.8564 0.557019 16.7243 0.476536C16.5919 0.396153 16.4273 0.332362 16.2314 0.284967C15.7115 0.171546 15.0494 0.11019 14.2448 0.100651C12.4204 0.0817723 11.2481 0.195343 10.7282 0.441213C10.5222 0.545096 10.3358 0.687034 10.1691 0.86658C9.9925 1.07469 9.96787 1.18826 10.0954 1.20694C10.684 1.29195 11.1007 1.49529 11.346 1.81678L11.4344 1.98713C11.5031 2.11004 11.5718 2.32764 11.6405 2.63964C11.7091 2.95164 11.7534 3.29677 11.7728 3.67484C11.8218 4.36525 11.8218 4.95626 11.7728 5.4479C11.7237 5.93974 11.6773 6.32263 11.6331 6.59687C11.5888 6.87111 11.5226 7.09333 11.4344 7.26349C11.346 7.43369 11.2872 7.53772 11.2577 7.57548C11.2283 7.61324 11.2038 7.63704 11.1843 7.64638C11.0568 7.69347 10.9242 7.71747 10.7869 7.71747C10.6495 7.71747 10.4828 7.6512 10.2867 7.51875C10.0906 7.3863 9.88706 7.20437 9.67612 6.97265C9.46518 6.74089 9.22729 6.41702 8.96234 6.001C8.6976 5.58497 8.42291 5.09328 8.13842 4.52592L7.90306 4.11447C7.75592 3.84977 7.55493 3.46434 7.29987 2.95854C7.04466 2.45254 6.81909 1.96309 6.62299 1.49027C6.5446 1.2917 6.42684 1.14052 6.26991 1.03649L6.19627 0.993813C6.14731 0.956056 6.06872 0.915963 5.9609 0.873238C5.85293 0.830562 5.74027 0.799958 5.62246 0.781129L1.59081 0.809348C1.17882 0.809348 0.89929 0.89932 0.752102 1.07902L0.693196 1.16402C0.663768 1.21137 0.648926 1.28698 0.648926 1.39106C0.648926 1.49509 0.678353 1.62277 0.737259 1.77395C1.32581 3.10739 1.96584 4.39337 2.65736 5.63212C3.34887 6.87086 3.94979 7.8687 4.45974 8.62474C4.9698 9.38133 5.4897 10.0954 6.01945 10.7666C6.54919 11.438 6.89985 11.8683 7.07141 12.0573C7.24318 12.2467 7.3781 12.3883 7.47618 12.4829L7.8441 12.8232C8.07952 13.0502 8.42522 13.3221 8.88137 13.6388C9.33763 13.9557 9.84274 14.2677 10.397 14.5753C10.9513 14.8823 11.5962 15.1329 12.332 15.3267C13.0676 15.5207 13.7837 15.5986 14.4802 15.561H16.1724C16.5155 15.5325 16.7755 15.4284 16.9523 15.2489L17.0108 15.1778C17.0502 15.1214 17.087 15.0337 17.121 14.9157C17.1555 14.7975 17.1726 14.6673 17.1726 14.5256C17.1625 14.1191 17.1946 13.7527 17.268 13.4265C17.3414 13.1004 17.4249 12.8545 17.5184 12.6889C17.6119 12.5235 17.7173 12.3839 17.8347 12.2707C17.9523 12.1573 18.0361 12.0886 18.0852 12.0649C18.1341 12.0411 18.1731 12.025 18.2025 12.0153C18.438 11.9397 18.715 12.0129 19.0341 12.2353C19.353 12.4576 19.6521 12.732 19.9318 13.0581C20.2114 13.3845 20.5473 13.7507 20.9396 14.1572C21.3321 14.5639 21.6754 14.8662 21.9695 15.0651L22.2637 15.2353C22.4602 15.3488 22.7152 15.4529 23.0292 15.5474C23.3426 15.6419 23.6172 15.6656 23.8529 15.6183L27.6196 15.5617C27.9922 15.5617 28.2821 15.5022 28.4877 15.3842C28.6937 15.266 28.8161 15.1358 28.8556 14.9942C28.895 14.8524 28.8971 14.6915 28.8631 14.5117C28.8282 14.3323 28.7938 14.2068 28.7596 14.1359Z" fill="black"/>
</svg>
