<svg id="wa" width="25" height="25" viewBox="0 0 25 25" fill="none" xmlns="http://www.w3.org/2000/svg">
<g clip-path="url(#clip0_268_164)">
<path fill-rule="evenodd" clip-rule="evenodd" d="M17.8877 15.1701C17.5897 15.0211 16.1287 14.3031 15.8567 14.2031C15.5847 14.1041 15.3867 14.0551 15.1877 14.3531C14.9897 14.6491 14.4207 15.3191 14.2477 15.5171C14.0737 15.7161 13.9007 15.7401 13.6037 15.5921C13.3067 15.4421 12.3487 15.1291 11.2137 14.1171C10.3307 13.3291 9.73366 12.3561 9.56066 12.0581C9.38766 11.7611 9.54166 11.6001 9.69066 11.4521C9.82466 11.3191 9.98766 11.1051 10.1367 10.9321C10.2857 10.7581 10.3347 10.6341 10.4337 10.4351C10.5337 10.2371 10.4837 10.0641 10.4087 9.91513C10.3347 9.76613 9.74066 8.30313 9.49266 7.70813C9.25166 7.12913 9.00666 7.20813 8.82466 7.19813C8.65066 7.19013 8.45266 7.18813 8.25466 7.18813C8.05666 7.18813 7.73466 7.26213 7.46266 7.56013C7.18966 7.85713 6.42266 8.57613 6.42266 10.0391C6.42266 11.5011 7.48666 12.9141 7.63566 13.1131C7.78466 13.3111 9.73066 16.3131 12.7117 17.6001C13.4217 17.9061 13.9747 18.0891 14.4057 18.2251C15.1177 18.4521 15.7657 18.4201 16.2777 18.3431C16.8477 18.2581 18.0357 17.6241 18.2837 16.9301C18.5307 16.2361 18.5307 15.6411 18.4567 15.5171C18.3827 15.3931 18.1847 15.3191 17.8867 15.1701H17.8877ZM12.4657 22.5731H12.4617C10.6911 22.5735 8.95303 22.0975 7.42966 21.1951L7.06966 20.9811L3.32766 21.9631L4.32666 18.3151L4.09166 17.9411C3.10179 16.3655 2.57795 14.5419 2.58066 12.6811C2.58266 7.23113 7.01666 2.79713 12.4697 2.79713C15.1097 2.79713 17.5917 3.82713 19.4577 5.69513C20.378 6.61171 21.1075 7.70169 21.6039 8.90202C22.1003 10.1024 22.3538 11.3892 22.3497 12.6881C22.3477 18.1381 17.9137 22.5731 12.4657 22.5731V22.5731ZM20.8777 4.27613C19.7758 3.16705 18.4649 2.28766 17.0207 1.68893C15.5766 1.09019 14.028 0.78401 12.4647 0.788127C5.91066 0.788127 0.574656 6.12313 0.572656 12.6801C0.571656 14.7761 1.11866 16.8221 2.15966 18.6251L0.472656 24.7881L6.77666 23.1341C8.52053 24.0842 10.4747 24.5821 12.4607 24.5821H12.4657C19.0197 24.5821 24.3557 19.2471 24.3577 12.6891C24.3625 11.1264 24.0574 9.57823 23.4601 8.13416C22.8628 6.69009 21.985 5.3788 20.8777 4.27613" fill="black"/>
</g>
<defs>
<clipPath id="clip0_268_164">
<rect width="24" height="24" fill="white" transform="translate(0.472656 0.788086)"/>
</clipPath>
</defs>
</svg>
